####
#
# OBJ File Generated by Meshlab
#
####
# Object simple_crater.obj
#
# Vertices: 25
# Faces: 32
#
####
mtllib ./simple_crater.obj.mtl

vn 0.163074 -0.260753 0.951533
v 0.000000 0.000000 1.930807
vn 0.307586 0.108194 0.945349
v 1.250000 0.000000 1.716581
vn -0.187225 -0.171122 0.967297
v 2.500000 0.000000 1.653310
vn -0.190062 -0.541293 0.819071
v 3.750000 0.000000 1.595189
vn 0.231788 -0.110390 0.966482
v 5.000000 0.000000 2.129433
vn 0.488396 0.021811 0.872349
v 0.000000 1.250000 2.273349
vn 0.021766 -0.216120 0.976124
v 1.250000 1.250000 1.330718
vn -0.340081 -0.514291 0.787305
v 2.500000 1.250000 2.177943
vn 0.256942 -0.148931 0.954882
v 3.750000 1.250000 2.571989
vn 0.634204 0.320831 0.703457
v 5.000000 1.250000 1.438179
vn 0.197887 -0.171740 0.965063
v 0.000000 2.500000 2.222912
vn -0.396195 -0.429313 0.811616
v 1.250000 2.500000 2.309757
vn 0.111662 -0.037655 0.993033
v 2.500000 2.500000 3.125000
vn 0.602067 0.335580 0.724501
v 3.750000 2.500000 2.052168
vn 0.632474 0.291646 0.717579
v 5.000000 2.500000 0.938963
vn -0.480696 -0.191230 0.855782
v 0.000000 3.750000 1.961650
vn -0.257463 -0.126626 0.957955
v 1.250000 3.750000 2.971423
vn 0.537604 0.319430 0.780350
v 2.500000 3.750000 2.249217
vn 0.544872 0.216562 0.810071
v 3.750000 3.750000 1.522536
vn 0.598406 0.019201 0.800963
v 5.000000 3.750000 0.443697
vn -0.540129 -0.162091 0.825825
v 0.000000 5.000000 2.399210
vn 0.324991 0.079095 0.942404
v 1.250000 5.000000 3.024558
vn 0.503802 0.192397 0.842121
v 2.500000 5.000000 1.828215
vn 0.476463 -0.091089 0.874463
v 3.750000 5.000000 1.507788
vn 0.438810 -0.286271 0.851760
v 5.000000 5.000000 0.863813
# 25 vertices, 0 vertices normals


usemtl material_0
vt 0.000000 0.000000
vt 0.250000 0.000000
vt 0.000000 0.250000
f 1/1/1 2/2/2 6/3/6
vt 0.250000 0.250000
f 2/2/2 7/4/7 6/3/6
vt 0.500000 0.000000
f 2/2/2 3/5/3 7/4/7
vt 0.500000 0.250000
f 3/5/3 8/6/8 7/4/7
vt 0.750000 0.000000
f 3/5/3 4/7/4 8/6/8
vt 0.750000 0.250000
f 4/7/4 9/8/9 8/6/8
vt 1.000000 0.000000
f 4/7/4 5/9/5 9/8/9
vt 1.000000 0.250000
f 5/9/5 10/10/10 9/8/9
vt 0.000000 0.500000
f 6/3/6 7/4/7 11/11/11
vt 0.250000 0.500000
f 7/4/7 12/12/12 11/11/11
f 7/4/7 8/6/8 12/12/12
vt 0.500000 0.500000
f 8/6/8 13/13/13 12/12/12
f 8/6/8 9/8/9 13/13/13
vt 0.750000 0.500000
f 9/8/9 14/14/14 13/13/13
f 9/8/9 10/10/10 14/14/14
vt 1.000000 0.500000
f 10/10/10 15/15/15 14/14/14
vt 0.000000 0.750000
f 11/11/11 12/12/12 16/16/16
vt 0.250000 0.750000
f 12/12/12 17/17/17 16/16/16
f 12/12/12 13/13/13 17/17/17
vt 0.500000 0.750000
f 13/13/13 18/18/18 17/17/17
f 13/13/13 14/14/14 18/18/18
vt 0.750000 0.750000
f 14/14/14 19/19/19 18/18/18
f 14/14/14 15/15/15 19/19/19
vt 1.000000 0.750000
f 15/15/15 20/20/20 19/19/19
vt 0.000000 1.000000
f 16/16/16 17/17/17 21/21/21
vt 0.250000 1.000000
f 17/17/17 22/22/22 21/21/21
f 17/17/17 18/18/18 22/22/22
vt 0.500000 1.000000
f 18/18/18 23/23/23 22/22/22
f 18/18/18 19/19/19 23/23/23
vt 0.750000 1.000000
f 19/19/19 24/24/24 23/23/23
f 19/19/19 20/20/20 24/24/24
vt 1.000000 1.000000
f 20/20/20 25/25/25 24/24/24
# 32 faces, 25 coords texture

# End of File
