####
#
# OBJ File Generated by Meshlab
#
####
# Object simple_crater_2nd_impact.obj
#
# Vertices: 25
# Faces: 32
#
####
mtllib ./simple_crater_2nd_impact.obj.mtl

vn 0.287855 -0.460276 0.839813
v 0.000000 0.000000 1.930807
vn 0.535653 0.188417 0.823150
v 2.500000 0.000000 1.716581
vn -0.342825 -0.313339 0.885601
v 5.000000 0.000000 1.653310
vn -0.269641 -0.767934 0.581009
v 7.500000 0.000000 1.595189
vn 0.423585 -0.201734 0.883108
v 10.000000 0.000000 2.129433
vn 0.745443 0.033290 0.665737
v 0.000000 2.500000 2.273349
vn 0.040744 -0.404556 0.913605
v 2.500000 2.500000 1.330718
vn -0.464900 -0.703050 0.538134
v 5.000000 2.500000 2.177943
vn 0.456971 -0.264874 0.849129
v 7.500000 2.500000 2.571989
vn 0.799746 0.404575 0.443538
v 10.000000 2.500000 1.438179
vn 0.360396 -0.312777 0.878798
v 0.000000 5.000000 2.222912
vn -0.556994 -0.603554 0.570509
v 2.500000 5.000000 2.309757
vn 0.218813 -0.073789 0.972973
v 5.000000 5.000000 3.125000
vn 0.773201 0.430967 0.465218
v 7.500000 5.000000 2.052168
vn 0.807282 0.372254 0.457955
v 10.000000 5.000000 0.938963
vn -0.716000 -0.284838 0.637347
v 0.000000 7.500000 1.961650
vn -0.461124 -0.226791 0.857864
v 2.500000 7.500000 2.971423
vn 0.729368 0.433371 0.529351
v 5.000000 7.500000 2.249217
vn 0.764596 0.303892 0.568369
v 7.500000 7.500000 1.522536
vn 0.830764 0.026657 0.555986
v 10.000000 7.500000 0.443697
vn -0.772789 -0.231912 0.590774
v 0.000000 10.000000 2.399210
vn 0.562418 0.136879 0.815445
v 2.500000 10.000000 3.024558
vn 0.736341 0.281201 0.615409
v 5.000000 10.000000 1.828215
vn 0.729587 -0.139481 0.669513
v 7.500000 10.000000 1.507788
vn 0.649908 -0.423987 0.630758
v 10.000000 10.000000 0.863813
# 25 vertices, 0 vertices normals


usemtl material_0
vt 0.000000 0.000000
vt 0.250000 0.000000
vt 0.000000 0.250000
f 1/1/1 2/2/2 6/3/6
vt 0.250000 0.250000
f 2/2/2 7/4/7 6/3/6
vt 0.500000 0.000000
f 2/2/2 3/5/3 7/4/7
vt 0.500000 0.250000
f 3/5/3 8/6/8 7/4/7
vt 0.750000 0.000000
f 3/5/3 4/7/4 8/6/8
vt 0.750000 0.250000
f 4/7/4 9/8/9 8/6/8
vt 1.000000 0.000000
f 4/7/4 5/9/5 9/8/9
vt 1.000000 0.250000
f 5/9/5 10/10/10 9/8/9
vt 0.000000 0.500000
f 6/3/6 7/4/7 11/11/11
vt 0.250000 0.500000
f 7/4/7 12/12/12 11/11/11
f 7/4/7 8/6/8 12/12/12
vt 0.500000 0.500000
f 8/6/8 13/13/13 12/12/12
f 8/6/8 9/8/9 13/13/13
vt 0.750000 0.500000
f 9/8/9 14/14/14 13/13/13
f 9/8/9 10/10/10 14/14/14
vt 1.000000 0.500000
f 10/10/10 15/15/15 14/14/14
vt 0.000000 0.750000
f 11/11/11 12/12/12 16/16/16
vt 0.250000 0.750000
f 12/12/12 17/17/17 16/16/16
f 12/12/12 13/13/13 17/17/17
vt 0.500000 0.750000
f 13/13/13 18/18/18 17/17/17
f 13/13/13 14/14/14 18/18/18
vt 0.750000 0.750000
f 14/14/14 19/19/19 18/18/18
f 14/14/14 15/15/15 19/19/19
vt 1.000000 0.750000
f 15/15/15 20/20/20 19/19/19
vt 0.000000 1.000000
f 16/16/16 17/17/17 21/21/21
vt 0.250000 1.000000
f 17/17/17 22/22/22 21/21/21
f 17/17/17 18/18/18 22/22/22
vt 0.500000 1.000000
f 18/18/18 23/23/23 22/22/22
f 18/18/18 19/19/19 23/23/23
vt 0.750000 1.000000
f 19/19/19 24/24/24 23/23/23
f 19/19/19 20/20/20 24/24/24
vt 1.000000 1.000000
f 20/20/20 25/25/25 24/24/24
# 32 faces, 25 coords texture

# End of File
